<svg height="56" viewBox="0 0 56 56" width="56" xmlns="http://www.w3.org/2000/svg"><path d="m1.6437 32.5493h6.689c.6164 0 1.1871-.3653 1.3469-1.0273l.6621-2.945 3.2189 14.9075c.2968 1.3698 2.534 1.3698 2.7395-.0228l2.7851-18.3091 3.2646 28.2398c.2055 1.6894 2.6254 1.6665 2.7624 0l3.0134-33.6732 2.9907 33.6504c.1598 1.7122 2.5568 1.7122 2.7623 0l3.2646-28.217 2.808 18.3319c.2054 1.3926 2.4199 1.3926 2.7397 0l3.1732-14.7249.6845 2.7624c.2057.7533.7308 1.0273 1.347 1.0273h6.4839c.9131 0 1.6205-.7077 1.6205-1.5981 0-.8903-.7074-1.6208-1.6205-1.6208h-5.4791l-1.8263-7.0771c-.4109-1.5296-2.3971-1.5296-2.7169 0l-2.8308 13.3323-3.2189-21.0258c-.2511-1.6665-2.5569-1.6208-2.7624.0229l-2.8764 24.9524-3.1505-35.6137c-.137-1.7122-2.6482-1.7122-2.808 0l-3.1504 35.6137-2.8765-24.9524c-.1826-1.6894-2.4884-1.6894-2.7623-.0229l-3.219 21.0258-2.808-13.3323c-.3196-1.4154-2.3514-1.4154-2.7395 0l-1.8263 7.0771h-5.6845c-.9132 0-1.6437.7305-1.6437 1.6208 0 .8904.7305 1.5981 1.6437 1.5981z"/></svg>